<?xml version="1.0" standalone="no"?>
<!DOCTYPE svg PUBLIC "-//W3C//DTD SVG 20010904//EN"
 "http://www.w3.org/TR/2001/REC-SVG-20010904/DTD/svg10.dtd">
<svg version="1.0" xmlns="http://www.w3.org/2000/svg"
 width="353.000000pt" height="353.000000pt" viewBox="0 0 353.000000 353.000000"
 preserveAspectRatio="xMidYMid meet">

<g transform="translate(0.000000,353.000000) scale(0.100000,-0.100000)"
fill="#ffda33" stroke="none">
<path d="M338 3501 c-171 -55 -300 -205 -328 -381 -6 -40 -10 -315 -10 -705
l0 -640 653 653 652 652 159 -159 c87 -88 163 -158 169 -154 6 3 7 1 4 -4 -9
-15 60 -86 74 -77 8 5 9 3 4 -5 -5 -8 5 -23 28 -42 l35 -29 4 -293 3 -292 27
-58 c18 -38 32 -56 39 -51 8 4 9 3 5 -5 -13 -20 94 -104 139 -110 6 -1 26 -6
45 -11 19 -6 154 -10 300 -10 l265 0 238 -238 238 -238 -653 -652 -652 -652
640 0 c376 0 666 4 704 10 74 12 162 48 153 63 -3 6 -1 7 5 3 21 -13 142 85
142 114 0 6 5 10 11 10 6 0 27 35 47 78 l37 77 3 1384 c2 1249 1 1390 -14
1440 -17 61 -53 130 -84 163 -11 12 -20 26 -20 31 0 5 -7 7 -15 3 -8 -3 -14 0
-12 6 3 17 -91 85 -153 111 l-55 22 -1385 2 c-1318 2 -1388 1 -1442 -16z" fill="#ffffff"/>
<path d="M652 2227 l-653 -653 3 -590 c4 -635 2 -609 59 -729 33 -70 134 -167
212 -203 100 -48 166 -52 765 -52 l547 0 468 470 c281 283 465 475 461 482 -4
7 -3 8 5 4 7 -5 77 59 186 171 l175 178 -168 168 -168 167 -220 0 c-267 0
-337 9 -429 54 -89 44 -157 112 -202 203 -44 90 -52 152 -53 433 l0 216 -168
167 -168 166 -652 -652z m407 -242 c40 -20 79 -70 87 -110 9 -52 -5 -94 -47
-140 -34 -37 -43 -42 -90 -44 -120 -5 -195 78 -170 189 21 95 135 149 220 105z
m429 -429 c116 -60 115 -224 -2 -280 -112 -53 -239 39 -222 161 7 50 45 109
80 123 33 14 114 11 144 -4z m447 -437 c65 -45 85 -136 44 -209 -28 -49 -70
-73 -133 -74 -63 0 -111 25 -138 74 -15 28 -18 47 -14 95 8 84 8 85 17 79 4
-2 14 5 22 16 37 52 139 62 202 19z"/>
</g>
</svg>
