<svg xmlns="http://www.w3.org/2000/svg" xmlns:xlink="http://www.w3.org/1999/xlink" version="1.1" id="Layer_1" x="0px" y="0px" viewBox="0 0 1092.8 271.2" style="enable-background:new 0 0 1092.8 271.2;" xml:space="preserve">
<style type="text/css"><script xmlns=""/>
	.st0{fill:#FFFFFF;}
	.st1{fill:#AD57A2;}
</style>
<g>
	<path class="st0" d="M447.7,93.9l18.1-18.1c-27.3-27.3-71.6-27.3-98.9,0c-13.2,13.2-20.5,30.8-20.5,49.5s7.3,36.2,20.5,49.5   c13.2,13.2,30.8,20.5,49.5,20.5s36.2-7.3,49.5-20.5l-18.1-18.1c-8.4,8.4-19.5,13-31.4,13c-11.8,0-23-4.6-31.4-13s-13-19.5-13-31.3   s4.6-23,13-31.4C402.3,76.6,430.4,76.6,447.7,93.9z"/>
	<path class="st0" d="M253,27.7h-25.6v117.4c0,13.9,9.9,50.1,54.3,50.1v-25.6c-26.1,0-28.6-18.9-28.7-24.5V80.3h28.7V54.7H253V27.7z   "/>
	<rect x="301.3" y="55.3" class="st0" width="25.6" height="139.9"/>
	<path class="st0" d="M760.9,145.1V80.3h28.7V54.7h-28.7v-27h-25.6v117.4c0,13.9,9.9,50.1,54.3,50.1v-25.6   C763.4,169.6,761,150.7,760.9,145.1z"/>
	<path class="st0" d="M697.6,93.9l18.1-18.1c-27.3-27.3-71.6-27.3-98.9,0c-13.2,13.2-20.5,30.8-20.5,49.5s7.3,36.2,20.5,49.5   c13.2,13.2,30.8,20.5,49.5,20.5s36.2-7.3,49.5-20.5l-18.1-18.1c-8.4,8.4-19.5,13-31.4,13c-11.8,0-23-4.6-31.4-13L697.6,93.9   L697.6,93.9z M622.6,132.7c-0.4-2.4-0.7-4.9-0.7-7.5c0-11.8,4.6-23,13-31.4c10.5-10.5,25.1-14.6,38.8-12.3L622.6,132.7z"/>
	<polygon class="st0" points="604.1,55.3 567.9,55.3 511,112.2 511,28.4 485.4,28.4 485.4,195.2 511,195.2 511,137.8 568.4,195.2    604.6,195.2 534.4,125  "/>
</g>
<path class="st0" d="M1021.8,189.3c-39.2,0-71.1-31.9-71.1-71.1V47.1h16.8v71.1c0,29.9,24.4,54.3,54.3,54.3s54.3-24.4,54.3-54.3  V47.1h16.8v71.1C1092.8,157.4,1060.9,189.3,1021.8,189.3z"/>
<path class="st0" d="M931.1,187.4h-122V179c0-0.6,0.1-15.3,7.5-30.1c7.1-14.1,22.1-31,53.5-31c16.5,0,44.2-3.2,44.2-24.7  c0-18.7-7.5-31.2-44.2-31.2c-20.2,0-44.2,5.4-44.2,31.2v8.4h-16.8v-8.4c0-30.1,22.8-48,61-48c15.1,0,61,0,61,48  c0,26.4-22.2,41.5-61,41.5c-18.2,0-31.1,7.1-38.3,21.2c-2.7,5.2-4.1,10.5-4.9,14.7h104.3L931.1,187.4L931.1,187.4z"/>
<g>
	<path class="st1" d="M74.1,36.4L0,110.5v63.3c0,14.9,12.1,27,27,27h63.3l74.1-74.1L144.7,107h-25.4c-14.1,0-25.5-11.4-25.5-25.5   V56.1L74.1,36.4z M98.8,138.2c3.4-3.4,9-3.4,12.4,0s3.4,9,0,12.4s-9,3.4-12.4,0C95.3,147.2,95.3,141.6,98.8,138.2z M62.6,102   c-3.4,3.4-9,3.4-12.4,0s-3.4-9,0-12.4s9-3.4,12.4,0S66,98.6,62.6,102z M86.9,126.3c-3.4,3.4-9,3.4-12.4,0c-3.4-3.4-3.4-9,0-12.4   s9-3.4,12.4,0S90.3,122.9,86.9,126.3z"/>
	<path class="st1" d="M173.8,0H27C12.1,0,0,12.1,0,27v73l74.1-74.1L101.2,53v28.5c0,10,8.1,18.1,18.1,18.1h28.5l27.1,27.1   l-74.1,74.1h73c14.9,0,27-12.1,27-27V27C200.8,12.1,188.7,0,173.8,0z"/>
</g>
<g>
	<path class="st0" d="M852.4,214.9l2.5-2.5c-8.4-8.4-22-8.4-30.3,0c-4.1,4.1-6.3,9.4-6.3,15.2c0,5.7,2.2,11.1,6.3,15.2   c4.1,4.1,9.4,6.3,15.2,6.3c5.7,0,11.1-2.2,15.2-6.3l-2.5-2.5c-3.4,3.4-7.9,5.3-12.7,5.3s-9.3-1.9-12.7-5.3   c-3.4-3.4-5.3-7.9-5.3-12.7s1.9-9.3,5.3-12.7C834,207.9,845.4,207.9,852.4,214.9z"/>
	<path class="st0" d="M1092.8,206h-3.5v21.6c0,9.9-8.1,18-18,18s-18-8.1-18-18V206h-3.5v21.6c0,11.9,9.7,21.6,21.6,21.6   c7.5,0,14.2-3.9,18-9.8v10.3c0,9.9-8.1,18-18,18v3.5c11.9,0,21.6-9.7,21.6-21.6v-19.8h-0.1c0.1-0.8,0.1-1.5,0.1-2.3V206H1092.8z"/>
	<path class="st0" d="M882.1,206.1c-11.8,0-21.5,9.6-21.5,21.5c0,11.8,9.6,21.5,21.5,21.5c11.8,0,21.5-9.6,21.5-21.5   C903.5,215.7,893.9,206.1,882.1,206.1z M882.1,245.5c-9.9,0-17.9-8-17.9-17.9s8-17.9,17.9-17.9s17.9,8,17.9,17.9   C900,237.4,891.9,245.5,882.1,245.5z"/>
	<path class="st0" d="M949.9,206.1c-5.2,0-9.7,2.9-12.1,7.1c-2.4-4.2-6.9-7.1-12.1-7.1c-7.6,0-13.9,6.2-13.9,13.9v29h3.5v-29   c0-5.7,4.6-10.3,10.3-10.3S936,214.3,936,220v1.8V249h3.5v-27.3V220c0-5.7,4.6-10.3,10.3-10.3s10.3,4.6,10.3,10.3v29h3.5v-29   C963.7,212.3,957.5,206.1,949.9,206.1z"/>
	<path class="st0" d="M1025,206.1c-5.2,0-9.7,2.9-12.1,7.1c-2.4-4.2-6.9-7.1-12.1-7.1c-7.6,0-13.9,6.2-13.9,13.9v29h3.5v-29   c0-5.7,4.6-10.3,10.3-10.3s10.3,4.6,10.3,10.3v1.8V249h3.5v-27.3V220c0-5.7,4.6-10.3,10.3-10.3c5.7,0,10.3,4.6,10.3,10.3v29h3.5   v-29C1038.9,212.3,1032.6,206.1,1025,206.1z"/>
	<circle class="st0" cx="975.4" cy="245.7" r="3.6"/>
	<circle class="st0" cx="812.7" cy="245.7" r="3.6"/>
</g>
</svg>